<svg width="125" height="71" viewBox="0 0 125 71" fill="none" xmlns="http://www.w3.org/2000/svg">
<g filter="url(#filter0_i_353_5523)">
<path d="M3.23042 55V15.3282H14.2252L30.0939 41.2282H24.3132L39.7285 15.3282H50.7233L50.8366 55H38.6517L38.5384 33.6906H40.4653L29.9239 51.4295H24.0298L13.035 33.6906H15.4153V55H3.23042ZM52.996 55L70.3383 15.3282H83.4867L100.829 55H87.0004L74.1921 21.6757H79.4061L66.5978 55H52.996ZM63.3107 48.0858L66.7111 38.4512H84.9602L88.3606 48.0858H63.3107ZM102.963 55V15.3282H116.339V55H102.963Z" fill="#003F6B"/>
</g>
<g filter="url(#filter1_i_353_5523)">
<path d="M5.99047 69.0715L3.68771 62.1829H4.70132L6.8171 68.5401H6.30537L8.49988 62.1829H9.40524L11.5505 68.5401H11.0585L13.2038 62.1829H14.1387L11.8359 69.0715H10.8026L8.79511 63.1769H9.06081L7.04344 69.0715H5.99047ZM20.3141 69.1306C19.7565 69.1306 19.2644 69.0158 18.838 68.7861C18.4181 68.5565 18.0901 68.2416 17.8539 67.8414C17.6243 67.4412 17.5095 66.982 17.5095 66.4637C17.5095 65.9454 17.621 65.4862 17.8441 65.086C18.0737 64.6858 18.3853 64.3742 18.779 64.1511C19.1791 63.9215 19.6285 63.8067 20.1272 63.8067C20.6323 63.8067 21.0784 63.9182 21.4655 64.1413C21.8526 64.3643 22.1544 64.6792 22.3709 65.086C22.5939 65.4862 22.7055 65.9553 22.7055 66.4932C22.7055 66.5326 22.7022 66.5785 22.6956 66.631C22.6956 66.6835 22.6923 66.7327 22.6858 66.7786H18.2475V66.0996H22.1937L21.8099 66.3358C21.8165 66.0012 21.7476 65.7027 21.6033 65.4403C21.4589 65.1778 21.2588 64.9745 21.003 64.8301C20.7537 64.6792 20.4617 64.6038 20.1272 64.6038C19.7991 64.6038 19.5072 64.6792 19.2513 64.8301C18.9955 64.9745 18.7954 65.1811 18.651 65.4501C18.5067 65.7125 18.4345 66.0143 18.4345 66.3555V66.5129C18.4345 66.8606 18.5133 67.1722 18.6707 67.4478C18.8347 67.7168 19.0611 67.9267 19.3497 68.0776C19.6384 68.2285 19.9697 68.3039 20.3436 68.3039C20.652 68.3039 20.9308 68.2515 21.1801 68.1465C21.436 68.0415 21.659 67.8841 21.8493 67.6741L22.3709 68.2843C22.1347 68.5598 21.8395 68.7697 21.4852 68.9141C21.1375 69.0584 20.7471 69.1306 20.3141 69.1306ZM29.4407 69.0715V62.1829H32.5307C33.3245 62.1829 33.9347 62.3437 34.3611 62.6651C34.7875 62.98 35.0007 63.413 35.0007 63.9641C35.0007 64.3381 34.9155 64.653 34.7449 64.9089C34.5809 65.1647 34.3578 65.3615 34.0757 65.4993C33.7936 65.6371 33.4885 65.706 33.1605 65.706L33.3376 65.4107C33.7313 65.4107 34.079 65.4796 34.3808 65.6174C34.6826 65.7552 34.922 65.9585 35.0992 66.2275C35.2763 66.49 35.3649 66.818 35.3649 67.2116C35.3649 67.8021 35.1418 68.2613 34.6957 68.5893C34.2561 68.9108 33.6001 69.0715 32.7275 69.0715H29.4407ZM30.4248 68.2744H32.6881C33.2327 68.2744 33.6493 68.1826 33.9379 67.9989C34.2266 67.8152 34.3709 67.5265 34.3709 67.1329C34.3709 66.7327 34.2266 66.4407 33.9379 66.2571C33.6493 66.0734 33.2327 65.9815 32.6881 65.9815H30.3362V65.1844H32.4421C32.9407 65.1844 33.3278 65.0926 33.6033 64.9089C33.8789 64.7252 34.0167 64.4496 34.0167 64.0822C34.0167 63.7148 33.8789 63.4393 33.6033 63.2556C33.3278 63.0719 32.9407 62.98 32.4421 62.98H30.4248V68.2744ZM41.5881 69.1306C41.142 69.1306 40.7484 69.0486 40.4072 68.8846C40.0726 68.7205 39.8102 68.4712 39.6199 68.1367C39.4362 67.7955 39.3444 67.3691 39.3444 66.8573V63.8559H40.2891V66.7491C40.2891 67.2608 40.4105 67.6446 40.6532 67.9005C40.9025 68.1563 41.2502 68.2843 41.6964 68.2843C42.0244 68.2843 42.3098 68.2187 42.5525 68.0874C42.7953 67.9497 42.9822 67.7529 43.1134 67.497C43.2447 67.2346 43.3103 66.9197 43.3103 66.5523V63.8559H44.255V69.0715H43.3595V67.6643L43.5071 68.0382C43.3365 68.386 43.0806 68.6549 42.7395 68.8452C42.3983 69.0355 42.0146 69.1306 41.5881 69.1306ZM48.6963 69.0715V63.8559H49.641V69.0715H48.6963ZM49.1686 62.8521C48.9849 62.8521 48.8308 62.7931 48.7061 62.675C48.588 62.5569 48.529 62.4126 48.529 62.242C48.529 62.0649 48.588 61.9172 48.7061 61.7991C48.8308 61.6811 48.9849 61.622 49.1686 61.622C49.3523 61.622 49.5032 61.6811 49.6213 61.7991C49.746 61.9107 49.8083 62.0517 49.8083 62.2223C49.8083 62.3994 49.7492 62.5503 49.6312 62.675C49.5131 62.7931 49.3589 62.8521 49.1686 62.8521ZM54.0876 69.0715V61.7696H55.0323V69.0715H54.0876ZM61.6341 69.1306C61.1289 69.1306 60.6762 69.019 60.276 68.796C59.8824 68.5729 59.5708 68.2613 59.3412 67.8611C59.1115 67.4609 58.9967 66.9951 58.9967 66.4637C58.9967 65.9323 59.1115 65.4698 59.3412 65.0761C59.5708 64.676 59.8824 64.3643 60.276 64.1413C60.6762 63.9182 61.1289 63.8067 61.6341 63.8067C62.0736 63.8067 62.4705 63.9051 62.8248 64.1019C63.1791 64.2987 63.4612 64.5939 63.6711 64.9876C63.8876 65.3812 63.9959 65.8733 63.9959 66.4637C63.9959 67.0542 63.8909 67.5462 63.681 67.9398C63.4776 68.3335 63.1988 68.632 62.8445 68.8354C62.4902 69.0322 62.0867 69.1306 61.6341 69.1306ZM61.7128 68.3039C62.0408 68.3039 62.3361 68.2285 62.5985 68.0776C62.8675 67.9267 63.0774 67.7135 63.2283 67.438C63.3857 67.1558 63.4645 66.8311 63.4645 66.4637C63.4645 66.0898 63.3857 65.7683 63.2283 65.4993C63.0774 65.2238 62.8675 65.0105 62.5985 64.8597C62.3361 64.7088 62.0408 64.6333 61.7128 64.6333C61.3782 64.6333 61.0797 64.7088 60.8173 64.8597C60.5549 65.0105 60.3449 65.2238 60.1875 65.4993C60.03 65.7683 59.9513 66.0898 59.9513 66.4637C59.9513 66.8311 60.03 67.1558 60.1875 67.438C60.3449 67.7135 60.5549 67.9267 60.8173 68.0776C61.0797 68.2285 61.3782 68.3039 61.7128 68.3039ZM63.494 69.0715V67.6643L63.553 66.4539L63.4546 65.2434V61.7696H64.3993V69.0715H63.494ZM76.5503 62.1829H77.5344V69.0715H76.5503V62.1829ZM72.5943 69.0715H71.6102V62.1829H72.5943V69.0715ZM76.6389 66.0012H72.4959V65.145H76.6389V66.0012ZM84.3352 69.1306C83.8104 69.1306 83.3446 69.0158 82.9378 68.7861C82.5311 68.5565 82.2096 68.2416 81.9734 67.8414C81.7372 67.4347 81.6191 66.9754 81.6191 66.4637C81.6191 65.9454 81.7372 65.4862 81.9734 65.086C82.2096 64.6858 82.5311 64.3742 82.9378 64.1511C83.3446 63.9215 83.8104 63.8067 84.3352 63.8067C84.8535 63.8067 85.316 63.9215 85.7228 64.1511C86.1361 64.3742 86.4576 64.6858 86.6872 65.086C86.9234 65.4796 87.0414 65.9389 87.0414 66.4637C87.0414 66.982 86.9234 67.4412 86.6872 67.8414C86.4576 68.2416 86.1361 68.5565 85.7228 68.7861C85.316 69.0158 84.8535 69.1306 84.3352 69.1306ZM84.3352 68.3039C84.6698 68.3039 84.9683 68.2285 85.2307 68.0776C85.4997 67.9267 85.7097 67.7135 85.8605 67.438C86.0114 67.1558 86.0869 66.8311 86.0869 66.4637C86.0869 66.0898 86.0114 65.7683 85.8605 65.4993C85.7097 65.2238 85.4997 65.0105 85.2307 64.8597C84.9683 64.7088 84.6698 64.6333 84.3352 64.6333C84.0006 64.6333 83.7021 64.7088 83.4397 64.8597C83.1773 65.0105 82.9673 65.2238 82.8099 65.4993C82.6524 65.7683 82.5737 66.0898 82.5737 66.4637C82.5737 66.8311 82.6524 67.1558 82.8099 67.438C82.9673 67.7135 83.1773 67.9267 83.4397 68.0776C83.7021 68.2285 84.0006 68.3039 84.3352 68.3039ZM97.5153 63.8067C97.9351 63.8067 98.3058 63.8887 98.6273 64.0527C98.9487 64.2167 99.198 64.466 99.3752 64.8006C99.5589 65.1352 99.6507 65.5584 99.6507 66.0701V69.0715H98.706V66.1783C98.706 65.6732 98.5879 65.2926 98.3517 65.0368C98.1156 64.7809 97.7842 64.653 97.3578 64.653C97.0429 64.653 96.7674 64.7186 96.5312 64.8498C96.295 64.981 96.1113 65.1746 95.9801 65.4304C95.8554 65.6863 95.7931 66.0045 95.7931 66.385V69.0715H94.8484V66.1783C94.8484 65.6732 94.7303 65.2926 94.4941 65.0368C94.2645 64.7809 93.9332 64.653 93.5002 64.653C93.1918 64.653 92.9196 64.7186 92.6834 64.8498C92.4472 64.981 92.2635 65.1746 92.1323 65.4304C92.0011 65.6863 91.9355 66.0045 91.9355 66.385V69.0715H90.9908V63.8559H91.8961V65.2434L91.7485 64.8892C91.9125 64.548 92.1651 64.2823 92.5063 64.0921C92.8474 63.9018 93.2443 63.8067 93.697 63.8067C94.1956 63.8067 94.6253 63.9313 94.9862 64.1806C95.347 64.4234 95.5832 64.794 95.6947 65.2926L95.3109 65.1352C95.4684 64.735 95.7439 64.4135 96.1375 64.1708C96.5312 63.9281 96.9904 63.8067 97.5153 63.8067ZM106.354 69.1306C105.797 69.1306 105.305 69.0158 104.878 68.7861C104.458 68.5565 104.13 68.2416 103.894 67.8414C103.664 67.4412 103.55 66.982 103.55 66.4637C103.55 65.9454 103.661 65.4862 103.884 65.086C104.114 64.6858 104.425 64.3742 104.819 64.1511C105.219 63.9215 105.669 63.8067 106.167 63.8067C106.672 63.8067 107.119 63.9182 107.506 64.1413C107.893 64.3643 108.194 64.6792 108.411 65.086C108.634 65.4862 108.746 65.9553 108.746 66.4932C108.746 66.5326 108.742 66.5785 108.736 66.631C108.736 66.6835 108.732 66.7327 108.726 66.7786H104.288V66.0996H108.234L107.85 66.3358C107.857 66.0012 107.788 65.7027 107.643 65.4403C107.499 65.1778 107.299 64.9745 107.043 64.8301C106.794 64.6792 106.502 64.6038 106.167 64.6038C105.839 64.6038 105.547 64.6792 105.291 64.8301C105.036 64.9745 104.835 65.1811 104.691 65.4501C104.547 65.7125 104.475 66.0143 104.475 66.3555V66.5129C104.475 66.8606 104.553 67.1722 104.711 67.4478C104.875 67.7168 105.101 67.9267 105.39 68.0776C105.679 68.2285 106.01 68.3039 106.384 68.3039C106.692 68.3039 106.971 68.2515 107.22 68.1465C107.476 68.0415 107.699 67.8841 107.889 67.6741L108.411 68.2843C108.175 68.5598 107.88 68.7697 107.525 68.9141C107.178 69.0584 106.787 69.1306 106.354 69.1306ZM114.196 69.1306C113.763 69.1306 113.35 69.0715 112.956 68.9534C112.569 68.8354 112.264 68.691 112.041 68.5204L112.435 67.7725C112.658 67.9234 112.933 68.0514 113.261 68.1563C113.589 68.2613 113.924 68.3138 114.265 68.3138C114.704 68.3138 115.019 68.2515 115.21 68.1268C115.406 68.0022 115.505 67.8283 115.505 67.6052C115.505 67.4412 115.446 67.3133 115.328 67.2215C115.21 67.1296 115.052 67.0607 114.855 67.0148C114.665 66.9689 114.452 66.9295 114.216 66.8967C113.98 66.8573 113.743 66.8114 113.507 66.7589C113.271 66.6999 113.054 66.6212 112.858 66.5228C112.661 66.4178 112.503 66.2767 112.385 66.0996C112.267 65.9159 112.208 65.6732 112.208 65.3714C112.208 65.0565 112.297 64.7809 112.474 64.5447C112.651 64.3086 112.9 64.1281 113.222 64.0035C113.55 63.8723 113.937 63.8067 114.383 63.8067C114.724 63.8067 115.069 63.8493 115.416 63.9346C115.771 64.0133 116.059 64.1281 116.282 64.279L115.879 65.0269C115.643 64.8695 115.397 64.7612 115.141 64.7022C114.885 64.6432 114.629 64.6136 114.373 64.6136C113.96 64.6136 113.652 64.6825 113.448 64.8203C113.245 64.9515 113.143 65.1221 113.143 65.332C113.143 65.5091 113.202 65.6469 113.32 65.7453C113.445 65.8372 113.602 65.9093 113.793 65.9618C113.989 66.0143 114.206 66.0602 114.442 66.0996C114.678 66.1324 114.914 66.1783 115.151 66.2374C115.387 66.2899 115.6 66.3653 115.79 66.4637C115.987 66.5621 116.145 66.6999 116.263 66.877C116.387 67.0542 116.45 67.2903 116.45 67.5856C116.45 67.9005 116.358 68.1727 116.174 68.4024C115.99 68.632 115.731 68.8124 115.397 68.9436C115.062 69.0683 114.662 69.1306 114.196 69.1306Z" fill="#003F6B"/>
</g>
<path d="M117.779 11.8001C117.779 12.1741 117.853 12.5445 117.996 12.8901C118.139 13.2356 118.349 13.5496 118.614 13.8141C118.878 14.0786 119.192 14.2884 119.538 14.4315C119.883 14.5746 120.254 14.6483 120.628 14.6483C121.002 14.6483 121.372 14.5746 121.718 14.4315C122.063 14.2884 122.377 14.0786 122.642 13.8141C122.906 13.5496 123.116 13.2356 123.259 12.8901C123.402 12.5445 123.476 12.1741 123.476 11.8001C123.476 11.4261 123.402 11.0557 123.259 10.7101C123.116 10.3646 122.906 10.0506 122.642 9.78612C122.377 9.52164 122.063 9.31185 121.718 9.16871C121.372 9.02558 121.002 8.9519 120.628 8.9519C120.254 8.9519 119.883 9.02558 119.538 9.16871C119.192 9.31185 118.878 9.52164 118.614 9.78612C118.349 10.0506 118.139 10.3646 117.996 10.7101C117.853 11.0557 117.779 11.4261 117.779 11.8001Z" stroke="#003F6B" stroke-width="0.42723" stroke-miterlimit="10"/>
<path d="M121.467 11.0803C121.467 11.2691 121.392 11.4503 121.258 11.5838C121.123 11.7174 120.941 11.7924 120.751 11.7924H119.498V10.3682H120.751C120.941 10.3682 121.123 10.4432 121.258 10.5767C121.392 10.7103 121.467 10.8914 121.467 11.0803Z" stroke="#003F6B" stroke-width="0.56964" stroke-linecap="round" stroke-linejoin="round"/>
<path d="M119.498 11.6116V13.3918" stroke="#003F6B" stroke-width="0.56964" stroke-linecap="round" stroke-linejoin="round"/>
<path d="M120.393 11.7959C120.63 11.7959 120.858 11.8897 121.026 12.0566C121.194 12.2235 121.288 12.45 121.288 12.686V13.3981" stroke="#003F6B" stroke-width="0.56964" stroke-linecap="round" stroke-linejoin="round"/>
<defs>
<filter id="filter0_i_353_5523" x="3.23047" y="15.3281" width="114.146" height="40.7097" filterUnits="userSpaceOnUse" color-interpolation-filters="sRGB">
<feFlood flood-opacity="0" result="BackgroundImageFix"/>
<feBlend mode="normal" in="SourceGraphic" in2="BackgroundImageFix" result="shape"/>
<feColorMatrix in="SourceAlpha" type="matrix" values="0 0 0 0 0 0 0 0 0 0 0 0 0 0 0 0 0 0 127 0" result="hardAlpha"/>
<feOffset dx="1.0378" dy="1.0378"/>
<feGaussianBlur stdDeviation="1.29725"/>
<feComposite in2="hardAlpha" operator="arithmetic" k2="-1" k3="1"/>
<feColorMatrix type="matrix" values="0 0 0 0 0 0 0 0 0 0 0 0 0 0 0 0 0 0 0.3 0"/>
<feBlend mode="normal" in2="shape" result="effect1_innerShadow_353_5523"/>
</filter>
<filter id="filter1_i_353_5523" x="3.68774" y="61.6221" width="112.762" height="7.68875" filterUnits="userSpaceOnUse" color-interpolation-filters="sRGB">
<feFlood flood-opacity="0" result="BackgroundImageFix"/>
<feBlend mode="normal" in="SourceGraphic" in2="BackgroundImageFix" result="shape"/>
<feColorMatrix in="SourceAlpha" type="matrix" values="0 0 0 0 0 0 0 0 0 0 0 0 0 0 0 0 0 0 127 0" result="hardAlpha"/>
<feOffset dy="0.180203"/>
<feGaussianBlur stdDeviation="0.0901015"/>
<feComposite in2="hardAlpha" operator="arithmetic" k2="-1" k3="1"/>
<feColorMatrix type="matrix" values="0 0 0 0 0 0 0 0 0 0 0 0 0 0 0 0 0 0 0.25 0"/>
<feBlend mode="normal" in2="shape" result="effect1_innerShadow_353_5523"/>
</filter>
</defs>
</svg>
